<?xml version="1.0" standalone="no"?>
<!DOCTYPE svg PUBLIC "-//W3C//DTD SVG 20010904//EN"
 "http://www.w3.org/TR/2001/REC-SVG-20010904/DTD/svg10.dtd">
<svg version="1.0" xmlns="http://www.w3.org/2000/svg"
 width="264.000000pt" height="238.000000pt" viewBox="0 0 264.000000 238.000000"
 preserveAspectRatio="xMidYMid meet">

<g transform="translate(0.000000,238.000000) scale(0.100000,-0.100000)"
fill="#000000" stroke="none">
<path d="M0 1190 l0 -1190 1320 0 1320 0 0 1190 0 1190 -1320 0 -1320 0 0
-1190z m1325 708 c7 -67 -13 -187 -40 -242 -8 -16 -15 -38 -15 -48 0 -22 -35
-94 -50 -103 -5 -3 -20 -29 -31 -56 -26 -60 -62 -83 -121 -76 -54 6 -63 24
-28 56 59 55 70 86 70 204 0 59 -3 107 -8 107 -7 0 -51 -16 -162 -60 -58 -23
-110 -64 -110 -88 0 -9 8 -4 21 12 23 29 122 84 113 64 -7 -20 -160 -168 -172
-168 -19 0 -14 22 10 47 12 13 16 23 10 23 -17 0 -52 -41 -52 -61 0 -36 -23
-39 -93 -15 -64 22 -65 23 -53 47 34 65 35 66 92 61 49 -4 54 -3 54 16 0 17
-7 21 -42 24 l-42 3 63 67 c136 145 347 245 523 247 l56 1 7 -62z m-271 -302
c7 -30 -2 -56 -20 -56 -8 0 -14 -6 -14 -13 0 -7 -22 -37 -50 -66 -46 -49 -70
-58 -70 -27 0 12 38 68 74 109 9 9 14 17 12 17 -7 0 48 57 55 59 4 0 10 -10
13 -23z m713 -31 c145 -125 353 -359 353 -396 0 -17 -9 -11 -42 29 -24 28 -45
49 -47 47 -5 -6 22 -45 58 -82 37 -39 39 -68 15 -175 -42 -184 -160 -370 -294
-463 -35 -24 -45 -27 -61 -17 -16 10 -20 10 -24 -3 -3 -8 -7 -22 -9 -29 -3 -8
-20 -23 -38 -32 -31 -16 -33 -16 -43 1 -5 10 -29 40 -52 67 -24 27 -43 53 -43
58 0 6 -22 10 -50 10 -27 0 -50 -4 -50 -10 0 -5 -9 -10 -20 -10 -13 0 -20 7
-20 20 0 13 7 20 20 20 11 0 20 5 20 10 0 6 -9 10 -20 10 -11 0 -20 6 -20 13
0 22 -74 6 -78 -16 -3 -13 4 -17 25 -18 15 0 23 -3 16 -5 -7 -3 -10 -11 -7
-18 3 -7 -4 -21 -16 -31 -21 -19 -28 -65 -10 -65 6 0 10 -7 10 -15 0 -10 10
-15 30 -15 28 0 30 -3 30 -35 0 -27 4 -35 18 -35 14 0 15 -2 2 -10 -8 -5 -52
-10 -97 -10 -65 0 -83 3 -83 14 0 8 -13 17 -30 21 -28 6 -30 10 -30 52 0 43 2
45 40 60 27 11 40 22 40 35 0 10 12 26 28 36 19 12 26 24 24 39 -2 16 8 33 34
57 21 19 41 33 45 30 7 -4 12 21 24 123 7 55 20 67 59 57 17 -4 25 1 34 21 7
14 12 37 12 50 0 16 6 25 15 25 12 0 14 7 9 28 -4 15 -11 29 -16 30 -4 2 -8
15 -8 28 0 28 51 86 58 66 6 -19 22 -14 22 8 0 22 -52 41 -93 33 -20 -4 -38 4
-74 33 -58 47 -62 52 -70 87 -3 15 -11 27 -17 27 -6 0 -4 6 5 13 19 15 49 70
49 92 0 10 9 15 29 15 23 0 30 -5 36 -27 3 -16 22 -61 41 -101 27 -57 38 -72
52 -68 9 3 31 8 47 12 17 4 53 20 80 35 34 19 67 29 102 30 29 1 50 6 48 10
-3 4 4 9 16 12 27 7 86 -18 94 -40 3 -10 22 -26 43 -35 35 -16 36 -16 17 0
-21 18 -123 133 -190 217 -22 27 -58 70 -80 95 -22 25 -37 43 -33 40 4 -3 33
-27 65 -55z m313 -155 c11 -20 41 -162 36 -167 -3 -4 -76 93 -76 101 0 4 -12
18 -27 31 -27 24 -27 24 -6 25 12 0 28 7 35 15 18 20 25 19 38 -5z m-1526
-182 c28 -46 27 -73 -4 -129 l-30 -54 0 103 c0 104 7 122 34 80z m799 -75 c-7
-2 -19 -2 -25 0 -7 3 -2 5 12 5 14 0 19 -2 13 -5z m-364 -515 c-1 -62 -2 -63
-9 -18 -6 41 -3 80 6 80 2 0 3 -28 3 -62z m151 -217 c0 -6 -4 -13 -10 -16 -5
-3 -10 1 -10 9 0 9 5 16 10 16 6 0 10 -4 10 -9z"/>
<path d="M771 1716 c-13 -13 -21 -32 -19 -43 4 -15 7 -14 18 9 7 14 21 29 31
31 11 3 19 10 19 16 0 19 -26 12 -49 -13z"/>
<path d="M1561 994 c0 -11 3 -14 6 -6 3 7 2 16 -1 19 -3 4 -6 -2 -5 -13z"/>
<path d="M1442 855 c0 -16 2 -22 5 -12 2 9 2 23 0 30 -3 6 -5 -1 -5 -18z"/>
<path d="M1340 433 c0 -5 5 -15 10 -23 8 -12 10 -11 10 8 0 12 -4 22 -10 22
-5 0 -10 -3 -10 -7z"/>
</g>
</svg>
